<?xml version="1.0" encoding="UTF-8"?>
<svg version="1.1" xmlns="http://www.w3.org/2000/svg" width="502" height="502">
<path d="M0 0 C0.90045044 -0.00705963 1.80090088 -0.01411926 2.7286377 -0.02139282 C40.56271231 -0.2507174 40.56271231 -0.2507174 57.20703125 3.203125 C58.69759033 3.50911621 58.69759033 3.50911621 60.21826172 3.82128906 C100.61314283 12.3640883 138.06628253 29.15870077 170.20703125 55.203125 C170.75681641 55.64849609 171.30660156 56.09386719 171.87304688 56.55273438 C185.56799711 67.75194973 198.45964844 80.12232935 209.20703125 94.203125 C210.13500337 95.37923247 211.06341845 96.55499052 211.9921875 97.73046875 C242.73473495 137.12249518 263.14572544 188.65379241 263.41015625 238.99609375 C263.41721588 239.89654419 263.42427551 240.79699463 263.43154907 241.72473145 C263.66087365 279.55880606 263.66087365 279.55880606 260.20703125 296.203125 C259.90104004 297.69368408 259.90104004 297.69368408 259.58886719 299.21435547 C251.04606795 339.60923658 234.25145548 377.06237628 208.20703125 409.203125 C207.76166016 409.75291016 207.31628906 410.30269531 206.85742188 410.86914062 C195.65820652 424.56409086 183.2878269 437.45574219 169.20703125 448.203125 C168.03092378 449.13109712 166.85516573 450.0595122 165.6796875 450.98828125 C126.28766107 481.7308287 74.75636384 502.14181919 24.4140625 502.40625 C23.06338684 502.41683945 23.06338684 502.41683945 21.6854248 502.42764282 C-16.14864981 502.6569674 -16.14864981 502.6569674 -32.79296875 499.203125 C-34.28352783 498.89713379 -34.28352783 498.89713379 -35.80419922 498.58496094 C-76.19908033 490.0421617 -113.65222003 473.24754923 -145.79296875 447.203125 C-146.34275391 446.75775391 -146.89253906 446.31238281 -147.45898438 445.85351562 C-161.15393461 434.65430027 -174.04558594 422.28392065 -184.79296875 408.203125 C-185.72094087 407.02701753 -186.64935595 405.85125948 -187.578125 404.67578125 C-218.32067245 365.28375482 -238.73166294 313.75245759 -238.99609375 263.41015625 C-239.00315338 262.50970581 -239.01021301 261.60925537 -239.01748657 260.68151855 C-239.24681115 222.84744394 -239.24681115 222.84744394 -235.79296875 206.203125 C-235.48697754 204.71256592 -235.48697754 204.71256592 -235.17480469 203.19189453 C-226.63200545 162.79701342 -209.83739298 125.34387372 -183.79296875 93.203125 C-183.34759766 92.65333984 -182.90222656 92.10355469 -182.44335938 91.53710938 C-171.24414402 77.84215914 -158.8737644 64.95050781 -144.79296875 54.203125 C-143.61686128 53.27515288 -142.44110323 52.3467378 -141.265625 51.41796875 C-101.87359857 20.6754213 -50.34230134 0.26443081 0 0 Z " fill="#9CA8EC" transform="translate(238.79296875,-0.203125)"/>
<path d="M0 0 C1.57317652 57.70734187 -18.72269116 114.23111368 -55 159 C-55.44537109 159.54978516 -55.89074219 160.09957031 -56.34960938 160.66601562 C-67.54882473 174.36096586 -79.91920435 187.25261719 -94 198 C-95.17610747 198.92797212 -96.35186552 199.8563872 -97.52734375 200.78515625 C-132.69404941 228.23015503 -174.9787421 244.86176009 -219 251 C-219.87785156 251.13148438 -220.75570313 251.26296875 -221.66015625 251.3984375 C-230.40281054 252.50813976 -239.19187597 252 -248 252 C-248 169.17 -248 86.34 -248 1 C-207.265625 0.835 -166.53125 0.67 -124.5625 0.5 C-105.23345093 0.42168945 -105.23345093 0.42168945 -85.51391602 0.34179688 C-69.83972168 0.27832031 -69.83972168 0.27832031 -62.51377869 0.24865723 C-57.37132259 0.22783378 -52.22886654 0.20699921 -47.08641052 0.18615723 C-40.54048796 0.15962714 -33.99456531 0.13311768 -27.44864261 0.10662174 C-25.03779563 0.09686002 -22.62694868 0.08709139 -20.21610177 0.07731533 C-16.97651116 0.06417964 -13.73692045 0.05106847 -10.49732971 0.03796387 C-9.06051047 0.0321291 -9.06051047 0.0321291 -7.59466457 0.02617645 C-1.11412483 0 -1.11412483 0 0 0 Z " fill="#FEFEFE" transform="translate(502,250)"/>
<path d="M0 0 C0.33 0 0.66 0 1 0 C1.48340669 2.79098957 1.96179062 5.58269656 2.4375 8.375 C2.57220703 9.14972656 2.70691406 9.92445313 2.84570312 10.72265625 C4.44983807 20.19096496 5.16566065 29.45981022 5.125 39.0625 C5.12886719 40.01060547 5.13273438 40.95871094 5.13671875 41.93554688 C5.13478516 43.28422852 5.13478516 43.28422852 5.1328125 44.66015625 C5.13168457 45.47105713 5.13055664 46.28195801 5.12939453 47.11743164 C5 49 5 49 4 50 C0.82711126 50.09808147 -2.32404351 50.12990366 -5.49732971 50.12025452 C-6.50437454 50.12111053 -7.51141937 50.12196655 -8.54898071 50.12284851 C-11.96178919 50.12451447 -15.37454947 50.11896269 -18.78735352 50.11352539 C-21.26051551 50.11321932 -23.7336776 50.1133521 -26.20683956 50.11389065 C-32.17964095 50.11409423 -38.15242343 50.10979403 -44.12522009 50.10338932 C-51.03005526 50.09620596 -57.93488286 50.09539549 -64.83972168 50.09460449 C-83.08065017 50.08934827 -101.32157531 50.07538724 -119.5625 50.0625 C-160.296875 50.041875 -201.03125 50.02125 -243 50 C-243 132.83 -243 215.66 -243 301 C-243.66 301 -244.32 301 -245 301 C-245 217.51 -245 134.02 -245 48 C-163.16 48 -81.32 48 3 48 C2.78732978 29.31894955 2.78732978 29.31894955 0 11 C-0.1953125 7.8125 -0.1953125 7.8125 -0.125 5 C-0.10695313 4.05125 -0.08890625 3.1025 -0.0703125 2.125 C-0.04710937 1.42375 -0.02390625 0.7225 0 0 Z " fill="#C0C9F2" transform="translate(497,201)"/>
<path d="M0 0 C0.94103577 -0.00367584 1.88207153 -0.00735168 2.85162354 -0.01113892 C14.92160286 -0.03572859 26.67500338 0.58972032 38.625 2.3125 C38.625 2.6425 38.625 2.9725 38.625 3.3125 C37.96419434 3.30805878 37.30338867 3.30361755 36.62255859 3.29904175 C29.61183891 3.2540608 22.60116151 3.22433133 15.59033203 3.20263672 C12.9897291 3.19270953 10.38913693 3.17916339 7.78857422 3.16162109 C-5.34712499 3.07536892 -18.42635451 3.10435806 -31.52734375 4.15625 C-32.45937622 4.22899139 -33.39140869 4.30173279 -34.35168457 4.37667847 C-42.75811935 5.14407125 -50.81261463 7.06902838 -58.94140625 9.2890625 C-62.87895602 10.30536802 -66.32055978 10.51930366 -70.375 10.3125 C-63.37476241 5.64567494 -53.52199315 4.93978184 -45.375 3.3125 C-44.52454102 3.14008789 -43.67408203 2.96767578 -42.79785156 2.79003906 C-28.62910588 0.06941364 -14.37418152 0.02702419 0 0 Z " fill="#BAC4F2" transform="translate(251.375,-0.3125)"/>
<path d="M0 0 C0.78373129 2.28147254 1.14012855 3.56952996 0.38256836 5.89672852 C0.03846924 6.55084717 -0.30562988 7.20496582 -0.66015625 7.87890625 C-1.03906006 8.62664307 -1.41796387 9.37437988 -1.80834961 10.14477539 C-2.22221924 10.94262451 -2.63608887 11.74047363 -3.0625 12.5625 C-6.88499547 20.2112173 -9.78700619 27.81673617 -12.14672852 36.03149414 C-13.82488742 41.82488742 -13.82488742 41.82488742 -16 44 C-16.60311615 45.68761858 -17.13850237 47.40014476 -17.625 49.125 C-18.01558594 50.49011719 -18.01558594 50.49011719 -18.4140625 51.8828125 C-18.60742188 52.58148438 -18.80078125 53.28015625 -19 54 C-20.21026714 50.51398669 -19.78196044 48.45744748 -18.62890625 44.9921875 C-18.30567383 44.01378906 -17.98244141 43.03539062 -17.64941406 42.02734375 C-17.29073242 40.98707031 -16.93205078 39.94679687 -16.5625 38.875 C-16.19995117 37.80636719 -15.83740234 36.73773438 -15.46386719 35.63671875 C-11.19921866 23.3174407 -5.8647131 11.62562596 0 0 Z " fill="#C5CDF5" transform="translate(28,134)"/>
<path d="M0 0 C0 2.81906747 -0.33186635 4.44972606 -1.25 7.0625 C-1.48203125 7.75472656 -1.7140625 8.44695312 -1.953125 9.16015625 C-3 11 -3 11 -4.86328125 11.7890625 C-8.20585459 13.68339108 -9.32724312 16.96762977 -10.9375 20.3125 C-13.40657632 25.41393825 -15.76161418 29.18913831 -20 33 C-18.47439308 27.47077723 -15.81258827 23.01322533 -12.8125 18.1875 C-12.32289795 17.39230957 -11.8332959 16.59711914 -11.32885742 15.77783203 C-7.88164822 10.2457498 -4.24685251 4.95707699 0 0 Z " fill="#CAD2F5" transform="translate(49,101)"/>
<path d="M0 0 C0.66 0.33 1.32 0.66 2 1 C-2.9000081 4.33455096 -7.20644472 6.67231025 -13 8 C-13 8.66 -13 9.32 -13 10 C-14.609375 11.32421875 -14.609375 11.32421875 -16.75 12.6875 C-17.44609375 13.14511719 -18.1421875 13.60273437 -18.859375 14.07421875 C-21.39090725 15.16906025 -22.46100862 14.9435441 -25 14 C-5.29134533 1.93830334 -5.29134533 1.93830334 0 0 Z " fill="#C2CBF4" transform="translate(140,25)"/>
<path d="M0 0 C0 2.85602507 -0.3622683 4.48384316 -1.3125 7.125 C-1.55613281 7.82882813 -1.79976562 8.53265625 -2.05078125 9.2578125 C-3 11 -3 11 -6 12 C-4.81819916 6.97734643 -3.55007718 3.9050849 0 0 Z " fill="#BDC5F2" transform="translate(49,101)"/>
<path d="M0 0 C0.66 0.33 1.32 0.66 2 1 C1.38125 1.2475 0.7625 1.495 0.125 1.75 C-2.35068687 3.20628639 -2.95125002 4.37812506 -4 7 C-5.32 6.67 -6.64 6.34 -8 6 C-5.36 4.02 -2.72 2.04 0 0 Z " fill="#BAC5F3" transform="translate(113,40)"/>
</svg>
