<?xml version="1.0" encoding="UTF-8"?>
<svg version="1.1" xmlns="http://www.w3.org/2000/svg" width="482" height="128">
<path d="M0 0 C159.06 0 318.12 0 482 0 C482 42.24 482 84.48 482 128 C322.94 128 163.88 128 0 128 C0 85.76 0 43.52 0 0 Z " fill="#FEFEFD" transform="translate(0,0)"/>
<path d="M0 0 C4 1 4 1 18 9 C18 34.08 18 59.16 18 85 C-8 100 -8 100 -14 99 C-16.77661133 97.6171875 -16.77661133 97.6171875 -19.58203125 95.875 C-20.59587891 95.25109375 -21.60972656 94.6271875 -22.65429688 93.984375 C-24.21760742 93.00210938 -24.21760742 93.00210938 -25.8125 92 C-26.87404297 91.34515625 -27.93558594 90.6903125 -29.02929688 90.015625 C-36.79196429 85.20803571 -36.79196429 85.20803571 -38 84 C-38.29053382 79.63794726 -38.31401426 75.27013721 -38.35009766 70.8996582 C-38.36664057 69.43009588 -38.39390956 67.96061347 -38.43212891 66.49145508 C-38.48697348 64.3727852 -38.50878094 62.2560034 -38.5234375 60.13671875 C-38.5531665 58.22959106 -38.5531665 58.22959106 -38.58349609 56.28393555 C-38 53 -38 53 -35.77392578 50.74243164 C-34.85853027 50.1674292 -33.94313477 49.59242676 -33 49 C-32.20271484 48.48663086 -31.40542969 47.97326172 -30.58398438 47.44433594 C-27.89566487 45.86824274 -25.20155898 44.30330352 -22.5 42.75 C-21.09427734 41.91855469 -21.09427734 41.91855469 -19.66015625 41.0703125 C-18.29697266 40.28527344 -18.29697266 40.28527344 -16.90625 39.484375 C-16.08447266 39.00709961 -15.26269531 38.52982422 -14.41601562 38.03808594 C-11.7065164 36.87389933 -9.91928127 36.6880064 -7 37 C-4.8125 38.5 -4.8125 38.5 -3 40 C-2.34 40 -1.68 40 -1 40 C-0.67 26.8 -0.34 13.6 0 0 Z " fill="#42433A" transform="translate(242,14)"/>
<path d="M0 0 C2.75434663 1.1310013 5.26133844 2.59691466 7.8125 4.125 C8.5144751 4.53298828 9.2164502 4.94097656 9.93969727 5.36132812 C23.04815055 13.04815055 23.04815055 13.04815055 26 16 C26.36307344 20.32407564 26.44239077 24.6535078 26.51489258 28.99047852 C26.54644651 30.44665211 26.59411473 31.90257203 26.65844727 33.35766602 C27.18001532 45.31832452 27.18001532 45.31832452 24.5 49.13769531 C22.41517943 50.74483085 20.37153298 51.86250804 18 53 C16.49360721 53.91829286 14.99101414 54.84284644 13.4921875 55.7734375 C11.95662386 56.64680561 10.41752873 57.51399324 8.875 58.375 C8.10285156 58.82488281 7.33070313 59.27476563 6.53515625 59.73828125 C2.23113507 62.15058614 -0.93355271 63.7716141 -6 63 C-8.3359375 62.125 -8.3359375 62.125 -10.375 61 C-11.06335938 60.62875 -11.75171875 60.2575 -12.4609375 59.875 C-12.96882813 59.58625 -13.47671875 59.2975 -14 59 C-14 57.68 -14 56.36 -14 55 C-14.78375 55.12375 -15.5675 55.2475 -16.375 55.375 C-21.71422475 54.82266641 -25.70096596 52.12509819 -30 49 C-32.19995978 44.60008044 -31.22709926 38.66047579 -31.24023438 33.76928711 C-31.24994768 31.57432267 -31.28097409 29.38029178 -31.3125 27.18554688 C-31.31902948 25.79167223 -31.32428017 24.39779089 -31.328125 23.00390625 C-31.3374707 21.73361572 -31.34681641 20.4633252 -31.35644531 19.15454102 C-31 16 -31 16 -29.75097656 14.2265625 C-27.76364981 12.83443623 -25.76699736 11.570118 -23.65625 10.37109375 C-22.82222656 9.89349609 -21.98820312 9.41589844 -21.12890625 8.92382812 C-19.82759766 8.1880957 -19.82759766 8.1880957 -18.5 7.4375 C-16.78079291 6.45783296 -15.0620244 5.47739575 -13.34375 4.49609375 C-12.58255859 4.06482178 -11.82136719 3.6335498 -11.03710938 3.18920898 C-4.65017379 -0.5393101 -4.65017379 -0.5393101 0 0 Z " fill="#FBFEF5" transform="translate(384,50)"/>
<path d="M0 0 C1.55223804 0.75529109 3.08110801 1.55961449 4.58984375 2.3984375 C5.45673828 2.87796875 6.32363281 3.3575 7.21679688 3.8515625 C8.11462891 4.35429688 9.01246094 4.85703125 9.9375 5.375 C11.27844727 6.1175 11.27844727 6.1175 12.64648438 6.875 C15.10372422 8.23952517 17.55338136 9.61654347 20 11 C21.01191406 11.56976563 22.02382812 12.13953125 23.06640625 12.7265625 C25 14 25 14 26 16 C26.30408537 20.22696446 26.35622258 24.45727911 26.4050293 28.69360352 C26.42659795 30.10107985 26.46068933 31.50842244 26.50756836 32.9152832 C26.90117019 44.84239926 26.90117019 44.84239926 23.59765625 49.0859375 C21.94555664 50.05493164 21.94555664 50.05493164 20 51 C18.87549438 51.68533813 18.87549438 51.68533813 17.72827148 52.38452148 C15.18744617 53.93264527 12.6060473 55.37725777 10 56.8125 C9.1234375 57.31458984 8.246875 57.81667969 7.34375 58.33398438 C-0.74791982 62.81243115 -0.74791982 62.81243115 -6 62 C-6.66 61.67 -7.32 61.34 -8 61 C-8 60.34 -8 59.68 -8 59 C-8.55042969 58.89171875 -9.10085937 58.7834375 -9.66796875 58.671875 C-12.46291634 57.86663047 -14.76266581 56.64934323 -17.3125 55.25 C-18.21613281 54.76015625 -19.11976563 54.2703125 -20.05078125 53.765625 C-21.02402344 53.18296875 -21.99726563 52.6003125 -23 52 C-23.94057251 51.63998901 -23.94057251 51.63998901 -24.90014648 51.27270508 C-27.3407101 50.10171666 -28.468851 49.26161281 -30 47 C-30.89366857 41.37872647 -30.65735168 35.85801405 -30.4375 30.1875 C-30.40236864 28.6205118 -30.37043278 27.05344848 -30.34179688 25.48632812 C-30.26484327 21.65569393 -30.14417319 17.82866966 -30 14 C-28.59935303 13.20444702 -28.59935303 13.20444702 -27.17041016 12.39282227 C-25.91826174 11.6799074 -24.66614769 10.96693216 -23.4140625 10.25390625 C-22.80183838 9.90638306 -22.18961426 9.55885986 -21.55883789 9.20080566 C-16.47135465 6.30110812 -11.48710553 3.25973593 -6.5234375 0.15234375 C-3.56398171 -1.19911052 -2.98666878 -1.01267969 0 0 Z " fill="#84CD2C" transform="translate(160,51)"/>
<path d="M0 0 C2.10888672 0.95214844 2.10888672 0.95214844 4.1796875 2.109375 C4.94410156 2.53476562 5.70851562 2.96015625 6.49609375 3.3984375 C7.28113281 3.84445313 8.06617188 4.29046875 8.875 4.75 C10.04095703 5.39582031 10.04095703 5.39582031 11.23046875 6.0546875 C13.51470046 7.33692849 15.77408528 8.61827113 18 10 C18.59778763 10.31216965 19.19557526 10.62433929 19.81147766 10.94596863 C22.63206804 12.59994741 24.64071394 13.80215751 25.6083374 17.02816772 C25.81102009 19.53328726 25.78775423 21.94587082 25.68359375 24.45703125 C25.67368912 25.35999435 25.66378448 26.26295746 25.65357971 27.19328308 C25.61449532 30.06803105 25.52669106 32.9389132 25.4375 35.8125 C25.40237815 37.76491868 25.37044067 39.71739741 25.34179688 41.66992188 C25.26475335 46.44809659 25.14401669 51.22339373 25 56 C18.19600421 54.70840637 10.30825 52.89795089 6 47 C4.80625257 42.29479287 4.94145709 37.58717243 5.25878906 32.77075195 C5.40315106 30.05371954 5.51666 27.67354251 5 25 C2.78731097 22.67048972 1.11158238 22.13544287 -2 21 C-4.15732132 20.91431497 -4.15732132 20.91431497 -6 22 C-6.85980469 22.30292969 -7.71960938 22.60585937 -8.60546875 22.91796875 C-11.18348248 24.71045444 -11.18348248 24.71045444 -11.33789062 27.09985352 C-11.35672142 29.82168835 -11.2806716 32.52975929 -11.1875 35.25 C-11.21763531 44.92424855 -11.21763531 44.92424855 -14.0625 48.8359375 C-16.65139894 50.60039541 -19.09134323 51.84975846 -22 53 C-23.134375 53.639375 -24.26875 54.27875 -25.4375 54.9375 C-28 56 -28 56 -31 56 C-31 42.14 -31 28.28 -31 14 C-24.7196875 10.2565625 -24.7196875 10.2565625 -18.3125 6.4375 C-17.00063721 5.64529053 -15.68877441 4.85308105 -14.3371582 4.03686523 C-12.77227661 3.11949585 -12.77227661 3.11949585 -11.17578125 2.18359375 C-9.58117065 1.23311157 -9.58117065 1.23311157 -7.9543457 0.26342773 C-4.60913694 -1.16715283 -3.38312549 -1.18334629 0 0 Z " fill="#44453C" transform="translate(86,51)"/>
<path d="M0 0 C1.8082692 0.91005878 3.59009512 1.87345796 5.3515625 2.87109375 C6.36734375 3.44537109 7.383125 4.01964844 8.4296875 4.61132812 C9.48414063 5.21396484 10.53859375 5.81660156 11.625 6.4375 C12.6871875 7.03626953 13.749375 7.63503906 14.84375 8.25195312 C22.73431747 12.73431747 22.73431747 12.73431747 25 15 C25.1953125 17.6015625 25.1953125 17.6015625 25.125 20.625 C25.10695313 21.62789062 25.08890625 22.63078125 25.0703125 23.6640625 C25.04710937 24.43492188 25.02390625 25.20578125 25 26 C22.75335738 27.31855095 20.50302694 28.62993972 18.25 29.9375 C17.61578125 30.31068359 16.9815625 30.68386719 16.328125 31.06835938 C13.23708368 32.85536764 10.48532332 34.24885273 7 35 C7.03222656 34.40832031 7.06445312 33.81664062 7.09765625 33.20703125 C7.04194406 29.41241183 6.91714954 26.93089696 4.17578125 24.1484375 C1.75391204 22.61061223 -0.19385896 21.61454941 -3 21 C-5.93877063 21.83807343 -7.50270031 23.11428391 -10 25 C-10.66 25 -11.32 25 -12 25 C-12.23355777 28.86057252 -12.0967925 32.27504433 -11 36 C-8.13450873 38.84013294 -4.60766047 40.26248705 -1 42 C1.73943952 43.5109635 4.43208239 45.09550484 7.125 46.6875 C7.80062988 47.0685791 8.47625977 47.4496582 9.17236328 47.84228516 C10.83338474 48.81103629 12.42471457 49.8973002 14 51 C14 51.99 14 52.98 14 54 C11.82493404 55.37864791 9.63864381 56.72664879 7.4375 58.0625 C6.82841797 58.45244141 6.21933594 58.84238281 5.59179688 59.24414062 C2.46922838 61.11107311 0.43288963 61.97973266 -3.25390625 62.15234375 C-8.8059615 60.4444644 -13.44825972 57.53332637 -18.375 54.5 C-19.88900391 53.58927734 -19.88900391 53.58927734 -21.43359375 52.66015625 C-28.77830038 48.22169962 -28.77830038 48.22169962 -30 47 C-30.38734139 42.53376938 -30.48515209 38.06259914 -30.56982422 33.58227539 C-30.60640382 32.07749438 -30.6608987 30.573035 -30.73388672 29.06958008 C-31.32747123 16.65491041 -31.32747123 16.65491041 -28.26196289 12.83325195 C-25.9135673 11.2543209 -23.59143775 10.13026017 -21 9 C-19.50103083 8.08523536 -18.01478995 7.14923989 -16.54296875 6.19140625 C-15.09275243 5.31244792 -13.64093395 4.43612742 -12.1875 3.5625 C-11.45080078 3.10423828 -10.71410156 2.64597656 -9.95507812 2.17382812 C-9.24158203 1.74650391 -8.52808594 1.31917969 -7.79296875 0.87890625 C-7.1589917 0.4929126 -6.52501465 0.10691895 -5.87182617 -0.29077148 C-3.42094209 -1.21940306 -2.43984154 -0.92697506 0 0 Z " fill="#42443A" transform="translate(309,51)"/>
<path d="M0 0 C2.75434663 1.1310013 5.26133844 2.59691466 7.8125 4.125 C8.5144751 4.53298828 9.2164502 4.94097656 9.93969727 5.36132812 C23.04815055 13.04815055 23.04815055 13.04815055 26 16 C26.36307344 20.32407564 26.44239077 24.6535078 26.51489258 28.99047852 C26.54644651 30.44665211 26.59411473 31.90257203 26.65844727 33.35766602 C27.18001532 45.31832452 27.18001532 45.31832452 24.5 49.13769531 C22.41517943 50.74483085 20.37153298 51.86250804 18 53 C16.49360721 53.91829286 14.99101414 54.84284644 13.4921875 55.7734375 C11.95662386 56.64680561 10.41752873 57.51399324 8.875 58.375 C8.10285156 58.82488281 7.33070313 59.27476563 6.53515625 59.73828125 C2.23575141 62.14799879 -0.93400893 63.76734865 -6 63 C-9.375 61.1875 -9.375 61.1875 -12 59 C-12 58.01 -12 57.02 -12 56 C-11.29875 56.144375 -10.5975 56.28875 -9.875 56.4375 C-8.451875 56.7159375 -8.451875 56.7159375 -7 57 C-6.12601562 57.27585938 -5.25203125 57.55171875 -4.3515625 57.8359375 C0.58113465 58.0773982 3.45517982 55.81414509 7.5 53.1875 C8.96542507 52.25905406 10.43411969 51.33574587 11.90625 50.41796875 C12.54884766 50.00313232 13.19144531 49.5882959 13.85351562 49.16088867 C16 48 16 48 22 46 C22 36.43 22 26.86 22 17 C20.02 16.34 18.04 15.68 16 15 C13.83764648 13.83911133 13.83764648 13.83911133 11.87109375 12.58203125 C10.78344727 11.90817383 10.78344727 11.90817383 9.67382812 11.22070312 C8.17484687 10.27680314 6.68007152 9.32619275 5.18945312 8.36914062 C1.12338025 5.79951479 1.12338025 5.79951479 -3.4921875 4.88671875 C-7.37719096 6.61136982 -10.95040789 8.76763406 -14.5625 11 C-16.06094371 11.92133174 -17.56215902 12.83817437 -19.06640625 13.75 C-19.72584229 14.15734375 -20.38527832 14.5646875 -21.06469727 14.984375 C-23 16 -23 16 -27 17 C-27 26.57 -27 36.14 -27 46 C-21.73642543 48.20405773 -21.73642543 48.20405773 -15 50 C-15 40.1 -15 30.2 -15 20 C-13.35 20 -11.7 20 -10 20 C-9.92569506 24.19918185 -9.87132587 28.39801274 -9.83520508 32.59765625 C-9.82014319 34.02545846 -9.79968938 35.4532146 -9.77368164 36.88085938 C-9.73718158 38.93631373 -9.72024834 40.99115505 -9.70703125 43.046875 C-9.6913208 44.28276367 -9.67561035 45.51865234 -9.65942383 46.79199219 C-10.02573095 50.24236898 -10.48443238 51.64298109 -13 54 C-19.79195077 55.0539234 -24.48727417 52.98074294 -30 49 C-32.19995978 44.60008044 -31.22709926 38.66047579 -31.24023438 33.76928711 C-31.24994768 31.57432267 -31.28097409 29.38029178 -31.3125 27.18554688 C-31.31902948 25.79167223 -31.32428017 24.39779089 -31.328125 23.00390625 C-31.3374707 21.73361572 -31.34681641 20.4633252 -31.35644531 19.15454102 C-31 16 -31 16 -29.75097656 14.2265625 C-27.76364981 12.83443623 -25.76699736 11.570118 -23.65625 10.37109375 C-22.82222656 9.89349609 -21.98820312 9.41589844 -21.12890625 8.92382812 C-19.82759766 8.1880957 -19.82759766 8.1880957 -18.5 7.4375 C-16.78079291 6.45783296 -15.0620244 5.47739575 -13.34375 4.49609375 C-12.58255859 4.06482178 -11.82136719 3.6335498 -11.03710938 3.18920898 C-4.65017379 -0.5393101 -4.65017379 -0.5393101 0 0 Z " fill="#94CB4C" transform="translate(384,50)"/>
<path d="M0 0 C3.3 1.65 6.6 3.3 10 5 C10 14.57 10 24.14 10 34 C1 39 1 39 -1 39 C-1 38.01 -1 37.02 -1 36 C-0.34 36 0.32 36 1 36 C1 35.34 1 34.68 1 34 C-3.62 34 -8.24 34 -13 34 C-13 33.34 -13 32.68 -13 32 C-13.78375 31.731875 -14.5675 31.46375 -15.375 31.1875 C-18 30 -18 30 -20 27 C-20 26.01 -20 25.02 -20 24 C-15.31441048 24.63318777 -15.31441048 24.63318777 -13.6875 26.53125 C-11.25976319 28.64428019 -9.4707594 28.29896798 -6.3125 28.1875 C-4.82169922 28.14689453 -4.82169922 28.14689453 -3.30078125 28.10546875 C-2.54152344 28.07066406 -1.78226562 28.03585938 -1 28 C-1 26.68 -1 25.36 -1 24 C-1.96099609 23.83564453 -1.96099609 23.83564453 -2.94140625 23.66796875 C-15.66423358 21.33576642 -15.66423358 21.33576642 -19 18 C-19.28863841 13.76663669 -18.75769079 10.8449486 -17 7 C-17 6.67 -17 6.34 -17 6 C-12.76624618 4.87099898 -8.74383167 4.95546794 -4.40234375 5.0625 C-2.10287632 5.00267646 -0.19801382 4.64975928 2 4 C2 3.34 2 2.68 2 2 C1.34 2 0.68 2 0 2 C0 1.34 0 0.68 0 0 Z " fill="#F5FDEB" transform="translate(396,62)"/>
<path d="M0 0 C0.66 0.33 1.32 0.66 2 1 C1.67 2.32 1.34 3.64 1 5 C1.99 5.33 2.98 5.66 4 6 C4 8.64 4 11.28 4 14 C9.5626148 16.66038099 14.93267948 17.96232949 21 19 C21.33 19.99 21.66 20.98 22 22 C20.35452013 23.98193582 19.44124297 24.90980116 16.87890625 25.43359375 C10.53029316 25.44429967 10.53029316 25.44429967 7.6875 23.0625 C7.130625 22.381875 6.57375 21.70125 6 21 C3.8618034 20.2127322 3.8618034 20.2127322 2 20 C3.78809729 24.33970917 3.78809729 24.33970917 7.1875 27.375 C8.0846875 27.684375 8.0846875 27.684375 9 28 C9 28.66 9 29.32 9 30 C13.62 30 18.24 30 23 30 C23 30.66 23 31.32 23 32 C22.34 32 21.68 32 21 32 C21 33.32 21 34.64 21 36 C18.5859375 37.95703125 18.5859375 37.95703125 15.375 39.8125 C14.33085937 40.43769531 13.28671875 41.06289062 12.2109375 41.70703125 C8.5276155 43.19021809 6.78351162 42.99901711 3 42 C1.576875 41.7215625 1.576875 41.7215625 0.125 41.4375 C-0.57625 41.293125 -1.2775 41.14875 -2 41 C-1.67 41.99 -1.34 42.98 -1 44 C-1.99 43.67 -2.98 43.34 -4 43 C-4 41.68 -4 40.36 -4 39 C-5.98 39 -7.96 39 -10 39 C-10 38.67 -10 38.34 -10 38 C-8.88625 37.896875 -7.7725 37.79375 -6.625 37.6875 C-5.42875 37.460625 -4.2325 37.23375 -3 37 C-0.57829321 33.36743982 -0.6955497 31.47421305 -0.5859375 27.14453125 C-0.56657135 26.48289474 -0.5472052 25.82125824 -0.5272522 25.13957214 C-0.46757313 23.03067836 -0.42111913 20.92172963 -0.375 18.8125 C-0.33680934 17.38083585 -0.29775697 15.94919441 -0.2578125 14.51757812 C-0.16188227 11.01192688 -0.07780803 7.50610555 0 4 C-1.32 3.67 -2.64 3.34 -4 3 C-2.68 2.67 -1.36 2.34 0 2 C0 1.34 0 0.68 0 0 Z " fill="#F9FDF2" transform="translate(374,66)"/>
<path d="M0 0 C2.5 1.875 2.5 1.875 3.375 5.0625 C3.41625 5.990625 3.4575 6.91875 3.5 7.875 C2.18 7.875 0.86 7.875 -0.5 7.875 C-0.83 6.555 -1.16 5.235 -1.5 3.875 C-5.46 3.875 -9.42 3.875 -13.5 3.875 C-13.5 5.195 -13.5 6.515 -13.5 7.875 C-11.92798828 8.16503906 -11.92798828 8.16503906 -10.32421875 8.4609375 C-8.94524407 8.72359934 -7.56634151 8.98664 -6.1875 9.25 C-5.49720703 9.37632813 -4.80691406 9.50265625 -4.09570312 9.6328125 C-0.66296686 10.29614318 1.55246458 10.90997639 4.5 12.875 C4.9375 16.25 4.9375 16.25 4.5 19.875 C2.63291495 22.23997439 1.17938569 23.53530715 -1.5 24.875 C-6.83643815 25.40689988 -11.21764667 25.47195758 -16.125 23.1875 C-18.70818982 20.67228886 -19.30270678 19.42627795 -19.5 15.875 C-14.81441048 16.50818777 -14.81441048 16.50818777 -13.1875 18.40625 C-10.75976319 20.51928019 -8.9707594 20.17396798 -5.8125 20.0625 C-4.32169922 20.02189453 -4.32169922 20.02189453 -2.80078125 19.98046875 C-2.04152344 19.94566406 -1.28226562 19.91085938 -0.5 19.875 C-0.5 18.555 -0.5 17.235 -0.5 15.875 C-1.46099609 15.71064453 -1.46099609 15.71064453 -2.44140625 15.54296875 C-15.16423358 13.21076642 -15.16423358 13.21076642 -18.5 9.875 C-18.79629238 6.5417107 -18.85806333 4.50587348 -17.1875 1.5625 C-12.79760173 -2.82739827 -5.41915441 -1.74187106 0 0 Z " fill="#8BC944" transform="translate(395.5,70.125)"/>
<path d="M0 0 C1.20366789 10.48194124 1.20366789 10.48194124 -1.5703125 13.98046875 C-5.03612805 16.3327428 -7.05803717 17.14491736 -11.25 16.5 C-13.7949856 15.11182604 -15.8796639 13.97014562 -18 12 C-19.00459548 8.22692626 -18.92720719 4.78609604 -18 1 C-12.01647326 -5.74557967 -7.13717552 -3.73079629 0 0 Z " fill="#FAFBF8" transform="translate(241,76)"/>
<path d="M0 0 C2.68210215 1.51971438 5.24346443 3.06377693 7.43359375 5.25390625 C7.57474536 7.92449476 7.47606482 10.57822863 7.43359375 13.25390625 C7.10359375 13.25390625 6.77359375 13.25390625 6.43359375 13.25390625 C6.43359375 11.27390625 6.43359375 9.29390625 6.43359375 7.25390625 C5.77359375 7.25390625 5.11359375 7.25390625 4.43359375 7.25390625 C4.45421875 8.36765625 4.47484375 9.48140625 4.49609375 10.62890625 C4.43359375 14.25390625 4.43359375 14.25390625 3.43359375 16.25390625 C1.10026042 16.58723958 -1.23307292 16.92057292 -3.56640625 17.25390625 C-3.89640625 17.91390625 -4.22640625 18.57390625 -4.56640625 19.25390625 C-7.48157917 18.17989517 -9.34450801 17.47580449 -11.56640625 15.25390625 C-11.76171875 12.65234375 -11.76171875 12.65234375 -11.69140625 9.62890625 C-11.67335938 8.62601563 -11.6553125 7.623125 -11.63671875 6.58984375 C-11.61351562 5.81898437 -11.5903125 5.048125 -11.56640625 4.25390625 C-4.37455254 -1.27174967 -4.37455254 -1.27174967 0 0 Z " fill="#E8F6D4" transform="translate(308.56640625,71.74609375)"/>
<path d="M0 0 C0.66 0.33 1.32 0.66 2 1 C1.67 2.32 1.34 3.64 1 5 C1.99 5.33 2.98 5.66 4 6 C4 8.64 4 11.28 4 14 C9.5626148 16.66038099 14.93267948 17.96232949 21 19 C21.33 19.99 21.66 20.98 22 22 C20.35452013 23.98193582 19.44124297 24.90980116 16.87890625 25.43359375 C10.53029316 25.44429967 10.53029316 25.44429967 7.6875 23.0625 C7.130625 22.381875 6.57375 21.70125 6 21 C3.8618034 20.2127322 3.8618034 20.2127322 2 20 C2.99 22.31 3.98 24.62 5 27 C3.68 26.67 2.36 26.34 1 26 C0.67 26.99 0.34 27.98 0 29 C0 20.75 0 12.5 0 4 C-1.32 3.67 -2.64 3.34 -4 3 C-2.68 2.67 -1.36 2.34 0 2 C0 1.34 0 0.68 0 0 Z " fill="#EBFBD2" transform="translate(374,66)"/>
<path d="M0 0 C0.33 0 0.66 0 1 0 C1 7.59 1 15.18 1 23 C1.66 23 2.32 23 3 23 C3.07596686 29.63851606 3.12856456 36.27692035 3.16479492 42.91577148 C3.17989602 45.17492868 3.20037842 47.43405649 3.22631836 49.69311523 C3.26264308 52.93741093 3.27971308 56.18131956 3.29296875 59.42578125 C3.30845261 60.43836502 3.32393646 61.45094879 3.33988953 62.49421692 C3.34011612 63.43496567 3.34034271 64.37571442 3.34057617 65.3449707 C3.34723801 66.17325882 3.35389984 67.00154694 3.36076355 67.85493469 C3 70 3 70 0 73 C0 48.91 0 24.82 0 0 Z " fill="#F5F6EF" transform="translate(260,24)"/>
<path d="M0 0 C1.98 0.495 1.98 0.495 4 1 C4 11.89 4 22.78 4 34 C2.35 33.67 0.7 33.34 -1 33 C-1.02469081 28.6217488 -1.04285557 24.24353433 -1.05493164 19.86523438 C-1.05996514 18.37531834 -1.06679242 16.88540726 -1.07543945 15.39550781 C-1.08754805 13.25584696 -1.09323807 11.11625132 -1.09765625 8.9765625 C-1.10289307 7.68830566 -1.10812988 6.40004883 -1.11352539 5.07275391 C-1 2 -1 2 0 0 Z " fill="#8DC542" transform="translate(354,64)"/>
<path d="M0 0 C3.3 1.65 6.6 3.3 10 5 C10 14.57 10 24.14 10 34 C1 39 1 39 -1 39 C-1 38.01 -1 37.02 -1 36 C-0.34 36 0.32 36 1 36 C1 35.34 1 34.68 1 34 C2.32 34.33 3.64 34.66 5 35 C5 34.34 5 33.68 5 33 C5.66 33 6.32 33 7 33 C7.33 24.09 7.66 15.18 8 6 C6.02 6 4.04 6 2 6 C2 4.68 2 3.36 2 2 C1.34 2 0.68 2 0 2 C0 1.34 0 0.68 0 0 Z " fill="#E4F4C7" transform="translate(396,62)"/>
<path d="M0 0 C0.639375 0.2475 1.27875 0.495 1.9375 0.75 C2.9275 1.08 3.9175 1.41 4.9375 1.75 C5.125 5.125 5.125 5.125 4.9375 8.75 C1.9375 10.75 1.9375 10.75 -1.6875 10.4375 C-5.0625 9.75 -5.0625 9.75 -6.0625 8.75 C-6.375 5.875 -6.375 5.875 -6.0625 2.75 C-4.03604247 0.50642202 -3.05480983 -0.37027998 0 0 Z " fill="#99C952" transform="translate(307.0625,76.25)"/>
<path d="M0 0 C0.99 0 1.98 0 3 0 C3.04939115 4.09338652 3.08571501 8.18665798 3.10986328 12.28027344 C3.11992877 13.67320781 3.13358234 15.06612102 3.15087891 16.45898438 C3.1751022 18.4595436 3.18540814 20.46025615 3.1953125 22.4609375 C3.20578613 23.66540527 3.21625977 24.86987305 3.22705078 26.11083984 C3 29 3 29 1 31 C0 30 0 30 -0.11352539 27.13256836 C-0.10828857 25.88096924 -0.10305176 24.62937012 -0.09765625 23.33984375 C-0.0962413 22.67537735 -0.09482635 22.01091095 -0.09336853 21.3263092 C-0.08775518 19.19666101 -0.07520054 17.06711661 -0.0625 14.9375 C-0.05748671 13.49674631 -0.05292351 12.05599097 -0.04882812 10.61523438 C-0.03778145 7.07678898 -0.02050792 3.53840461 0 0 Z " fill="#84C636" transform="translate(370,70)"/>
<path d="M0 0 C5.75 2.75 5.75 2.75 8 5 C8.22705078 8.07275391 8.22705078 8.07275391 8.1953125 11.9765625 C8.1924826 12.66181 8.18965271 13.3470575 8.18673706 14.05307007 C8.17553281 16.24389027 8.15042859 18.43430316 8.125 20.625 C8.11497048 22.1093691 8.10584458 23.5937446 8.09765625 25.078125 C8.07559294 28.71888261 8.04106176 32.35940156 8 36 C7.01 36.495 7.01 36.495 6 37 C5.67 26.77 5.34 16.54 5 6 C3.35 5.67 1.7 5.34 0 5 C-0.66 4.34 -1.32 3.68 -2 3 C-1.34 2.67 -0.68 2.34 0 2 C0 1.34 0 0.68 0 0 Z " fill="#9ED25D" transform="translate(402,61)"/>
<path d="M0 0 C2 1.375 2 1.375 3 3 C3 3.66 3 4.32 3 5 C3.99 5 4.98 5 6 5 C5.67 6.32 5.34 7.64 5 9 C0.05 7.68 -4.9 6.36 -10 5 C-10 3.68 -10 2.36 -10 1 C-6.82417369 -0.58791315 -3.45838847 -0.41019741 0 0 Z " fill="#F6FDE6" transform="translate(392,73)"/>
<path d="M0 0 C3.66266584 3.66266584 3.39328476 4.68821257 3.43359375 9.71484375 C3.4388356 10.36699356 3.44407745 11.01914337 3.44947815 11.6910553 C3.45589347 13.06868061 3.45456757 14.44636073 3.44604492 15.82397461 C3.43754137 17.92726701 3.46628361 20.02783583 3.49804688 22.13085938 C3.49965929 23.47135336 3.49908059 24.81185213 3.49609375 26.15234375 C3.49794678 27.36913818 3.4997998 28.58593262 3.50170898 29.83959961 C2.91459373 33.53799714 1.87904812 34.70140225 -1 37 C-1.66 36.67 -2.32 36.34 -3 36 C-2.67 34.68 -2.34 33.36 -2 32 C-1.34 32 -0.68 32 0 32 C0 21.44 0 10.88 0 0 Z " fill="#A2D466" transform="translate(183,64)"/>
<path d="M0 0 C0.66 0 1.32 0 2 0 C2.03758423 1.43835205 2.03758423 1.43835205 2.07592773 2.90576172 C2.1699862 6.45798477 2.27021058 10.01001156 2.37231445 13.56201172 C2.41566926 15.10037653 2.45734395 16.63878963 2.49731445 18.17724609 C2.55500398 20.3865414 2.61870179 22.59559348 2.68359375 24.8046875 C2.70030624 25.49432587 2.71701874 26.18396423 2.73423767 26.89450073 C2.80806995 30.57114264 2.80806995 30.57114264 4 34 C2.68 34 1.36 34 0 34 C-0.16775443 29.64028686 -0.32829897 25.28038583 -0.48217773 20.92016602 C-0.53553529 19.43702051 -0.59085973 17.95394439 -0.64819336 16.47094727 C-0.73027921 14.33885663 -0.80528001 12.20661621 -0.87890625 10.07421875 C-0.94960327 8.14968872 -0.94960327 8.14968872 -1.02172852 6.1862793 C-1 3 -1 3 0 0 Z " fill="#E6F6CF" transform="translate(128,66)"/>
<path d="M0 0 C0 0.66 0 1.32 0 2 C0.99 2.33 1.98 2.66 3 3 C-1.62 5.64 -6.24 8.28 -11 11 C-11.99 9.68 -12.98 8.36 -14 7 C-12.04480616 5.82807953 -10.0857461 4.6626071 -8.125 3.5 C-7.03445313 2.8503125 -5.94390625 2.200625 -4.8203125 1.53125 C-2 0 -2 0 0 0 Z " fill="#8BCC40" transform="translate(370,56)"/>
<path d="M0 0 C0.66 0.33 1.32 0.66 2 1 C1.67 1.66 1.34 2.32 1 3 C0.34 3 -0.32 3 -1 3 C-1.33 3.99 -1.66 4.98 -2 6 C-2.66 6 -3.32 6 -4 6 C-3.90638035 10.07549941 -3.80026839 14.15046336 -3.68261719 18.2253418 C-3.6443565 19.61131907 -3.60949844 20.99739465 -3.578125 22.38354492 C-3.53241301 24.3770164 -3.47341075 26.37016914 -3.4140625 28.36328125 C-3.3826416 29.56251221 -3.3512207 30.76174316 -3.31884766 31.99731445 C-3.21570506 35.17882706 -3.21570506 35.17882706 -1 38 C-2.32 37.34 -3.64 36.68 -5 36 C-5.12359943 31.35532361 -5.21433399 26.71160374 -5.2746582 22.06567383 C-5.2998033 20.48542611 -5.33392474 18.90529471 -5.37719727 17.32543945 C-5.43785708 15.05390768 -5.46620678 12.78391256 -5.48828125 10.51171875 C-5.51408768 9.80536789 -5.5398941 9.09901703 -5.56648254 8.3712616 C-5.56762695 6.36987305 -5.56762695 6.36987305 -5 3 C-2.59448242 0.96801758 -2.59448242 0.96801758 0 0 Z " fill="#8CC145" transform="translate(135,62)"/>
<path d="M0 0 C1.45880109 0.14107747 2.91703551 0.28802415 4.375 0.4375 C5.59316406 0.55931641 5.59316406 0.55931641 6.8359375 0.68359375 C9 1 9 1 11 2 C11 3.32 11 4.64 11 6 C9.54257537 6.08096803 8.08387193 6.13917774 6.625 6.1875 C5.81289063 6.22230469 5.00078125 6.25710937 4.1640625 6.29296875 C3.44992187 6.19628906 2.73578125 6.09960938 2 6 C0 3 0 3 0 0 Z " fill="#FDFEF8" transform="translate(383,84)"/>
<path d="M0 0 C5.875 0.875 5.875 0.875 7 2 C7.04063832 3.66617115 7.042721 5.33388095 7 7 C4.36 7 1.72 7 -1 7 C-1.33 6.01 -1.66 5.02 -2 4 C-1.34 4 -0.68 4 0 4 C0 2.68 0 1.36 0 0 Z " fill="#85C92E" transform="translate(304,78)"/>
<path d="M0 0 C3 3.75 3 3.75 3 6 C-1.08728995 9.66446685 -5.38252051 9.32185716 -10.57421875 9.30078125 C-13 9 -13 9 -15 7 C-9.06 6.505 -9.06 6.505 -3 6 C-3 5.34 -3 4.68 -3 4 C-2.34 4 -1.68 4 -1 4 C-0.67 2.68 -0.34 1.36 0 0 Z " fill="#92CB52" transform="translate(396,86)"/>
<path d="M0 0 C-0.15597656 0.68707031 -0.31195313 1.37414062 -0.47265625 2.08203125 C-0.66730469 2.98308594 -0.86195313 3.88414063 -1.0625 4.8125 C-1.25972656 5.70582031 -1.45695312 6.59914063 -1.66015625 7.51953125 C-2.20349463 10.12630779 -2.20349463 10.12630779 -1 13 C-2.32 12.67 -3.64 12.34 -5 12 C-5 8.37 -5 4.74 -5 1 C-3 0 -3 0 0 0 Z " fill="#EFEEEB" transform="translate(302,75)"/>
<path d="M0 0 C0 0.66 0 1.32 0 2 C-1.32 2 -2.64 2 -4 2 C-4 2.99 -4 3.98 -4 5 C-7.08809695 6.76462683 -8.23312136 7 -12 7 C-12 6.01 -12 5.02 -12 4 C-8.24831884 1.21303685 -4.66263733 0 0 0 Z " fill="#90C442" transform="translate(382,51)"/>
<path d="M0 0 C3.66666667 0 7.33333333 0 11 0 C11 1.65 11 3.3 11 5 C9.02 5.33 7.04 5.66 5 6 C5 4.35 5 2.7 5 1 C4.34 1 3.68 1 3 1 C3 2.65 3 4.3 3 6 C2.67 6 2.34 6 2 6 C2 4.35 2 2.7 2 1 C1.34 0.67 0.68 0.34 0 0 Z " fill="#C1D89A" transform="translate(416,50)"/>
<path d="M0 0 C0.33 0 0.66 0 1 0 C1 10.23 1 20.46 1 31 C-0.32 31.33 -1.64 31.66 -3 32 C-2.01 30.515 -2.01 30.515 -1 29 C-0.6303565 25.89791016 -0.6303565 25.89791016 -0.5859375 22.36328125 C-0.54726563 21.06455078 -0.50859375 19.76582031 -0.46875 18.42773438 C-0.43729483 17.05599427 -0.40604749 15.68424939 -0.375 14.3125 C-0.33680803 12.92901215 -0.29775558 11.54554777 -0.2578125 10.16210938 C-0.16339483 6.7748755 -0.07781882 3.38764931 0 0 Z " fill="#F2FDDE" transform="translate(410,68)"/>
<path d="M0 0 C-5.09146877 4.24289064 -8.19208298 6.59199278 -15 6 C-15.66 5.34 -16.32 4.68 -17 4 C-14.36 3.67 -11.72 3.34 -9 3 C-9 2.34 -9 1.68 -9 1 C-5.92677456 0.08941469 -3.19902639 -0.08886184 0 0 Z " fill="#93CB4B" transform="translate(169,107)"/>
<path d="M0 0 C1 2 2 4 3 6 C1.02 6.99 1.02 6.99 -1 8 C-0.67 8.66 -0.34 9.32 0 10 C-0.99 9.67 -1.98 9.34 -3 9 C-3 7.68 -3 6.36 -3 5 C-4.98 5 -6.96 5 -9 5 C-9 4.67 -9 4.34 -9 4 C-7.88625 3.896875 -6.7725 3.79375 -5.625 3.6875 C-4.42875 3.460625 -3.2325 3.23375 -2 3 C-1.34 2.01 -0.68 1.02 0 0 Z " fill="#E8F7D0" transform="translate(373,100)"/>
<path d="M0 0 C0.33 0.66 0.66 1.32 1 2 C1.99 2 2.98 2 4 2 C3.67 3.32 3.34 4.64 3 6 C-1.29 5.01 -5.58 4.02 -10 3 C-10 2.67 -10 2.34 -10 2 C-6.7 2 -3.4 2 0 2 C0 1.34 0 0.68 0 0 Z " fill="#E4FBCE" transform="translate(394,76)"/>
<path d="M0 0 C2.9375 1.1875 2.9375 1.1875 6 3 C6.875 5.6875 6.875 5.6875 7 8 C6.34 7.34 5.68 6.68 5 6 C4.175 5.835 3.35 5.67 2.5 5.5 C0 5 0 5 -2 3 C-1.34 2.67 -0.68 2.34 0 2 C0 1.34 0 0.68 0 0 Z " fill="#90C34F" transform="translate(402,61)"/>
<path d="M0 0 C1.32 0.33 2.64 0.66 4 1 C4 1.66 4 2.32 4 3 C7.3 3 10.6 3 14 3 C12.68 4.32 11.36 5.64 10 7 C7.69 6.01 5.38 5.02 3 4 C3 3.34 3 2.68 3 2 C2.01 2 1.02 2 0 2 C0 1.34 0 0.68 0 0 Z " fill="#E8F9D2" transform="translate(148,109)"/>
<path d="M0 0 C0.33 1.32 0.66 2.64 1 4 C-4.445 5.485 -4.445 5.485 -10 7 C-10 6.34 -10 5.68 -10 5 C-8.3203125 3.7109375 -8.3203125 3.7109375 -6.125 2.375 C-5.40570313 1.92898437 -4.68640625 1.48296875 -3.9453125 1.0234375 C-2 0 -2 0 0 0 Z " fill="#F1FBE2" transform="translate(407,100)"/>
<path d="M0 0 C0 1.32 0 2.64 0 4 C-6.75 3.25 -6.75 3.25 -9 1 C-5.92677456 0.08941469 -3.19902639 -0.08886184 0 0 Z " fill="#EEFDE0" transform="translate(369,96)"/>
<path d="M0 0 C2.97 0.495 2.97 0.495 6 1 C6 1.99 6 2.98 6 4 C6.66 4.33 7.32 4.66 8 5 C5.69 4.67 3.38 4.34 1 4 C0.67 2.68 0.34 1.36 0 0 Z " fill="#87C639" transform="translate(396,59)"/>
<path d="M0 0 C2.97 1.98 2.97 1.98 6 4 C5.67 4.99 5.34 5.98 5 7 C3.35 6.67 1.7 6.34 0 6 C0 4.02 0 2.04 0 0 Z " fill="#F9FDEA" transform="translate(376,79)"/>
<path d="M0 0 C2.03144641 0.93446535 4.03533587 1.93224776 6 3 C5.67 3.66 5.34 4.32 5 5 C2.36 4.67 -0.28 4.34 -3 4 C-2.67 3.01 -2.34 2.02 -2 1 C-1.34 0.67 -0.68 0.34 0 0 Z " fill="#F0EFF0" transform="translate(306,71)"/>
<path d="M0 0 C0.66 0.33 1.32 0.66 2 1 C1.67 1.66 1.34 2.32 1 3 C0.34 3 -0.32 3 -1 3 C-1.33 3.99 -1.66 4.98 -2 6 C-2.66 6 -3.32 6 -4 6 C-4.33 7.32 -4.66 8.64 -5 10 C-5.3125 6.6875 -5.3125 6.6875 -5 3 C-2.625 1 -2.625 1 0 0 Z " fill="#91C94D" transform="translate(135,62)"/>
<path d="M0 0 C4.75 0.75 4.75 0.75 7 3 C6.01 3 5.02 3 4 3 C4 3.66 4 4.32 4 5 C2.68 4.34 1.36 3.68 0 3 C0 2.01 0 1.02 0 0 Z " fill="#96CA4E" transform="translate(372,106)"/>
<path d="M0 0 C3.3 1.65 6.6 3.3 10 5 C6.21326759 6.26224414 4.6717132 5.32806648 1 4 C0.34 4 -0.32 4 -1 4 C-0.67 2.68 -0.34 1.36 0 0 Z " fill="#F0FEDB" transform="translate(385,56)"/>
<path d="M0 0 C2.31 0.33 4.62 0.66 7 1 C6.360625 1.103125 5.72125 1.20625 5.0625 1.3125 C4.0415625 1.6528125 4.0415625 1.6528125 3 2 C2.67 2.99 2.34 3.98 2 5 C0.35 4.67 -1.3 4.34 -3 4 C-2.01 3.67 -1.02 3.34 0 3 C0 2.01 0 1.02 0 0 Z " fill="#99CA59" transform="translate(382,78)"/>
<path d="M0 0 C2.97 1.65 5.94 3.3 9 5 C6 6 6 6 2 6 C2 4.68 2 3.36 2 2 C1.34 2 0.68 2 0 2 C0 1.34 0 0.68 0 0 Z " fill="#E8FBD0" transform="translate(396,62)"/>
<path d="M0 0 C0.33 0 0.66 0 1 0 C1.36923077 7.50769231 1.36923077 7.50769231 -0.5 10 C-0.995 10.33 -1.49 10.66 -2 11 C-2.66 10.67 -3.32 10.34 -4 10 C-3.67 8.68 -3.34 7.36 -3 6 C-2.34 6 -1.68 6 -1 6 C-0.67 4.02 -0.34 2.04 0 0 Z " fill="#97C748" transform="translate(184,90)"/>
<path d="M0 0 C0.33 0 0.66 0 1 0 C1.06058594 0.83144531 1.12117187 1.66289063 1.18359375 2.51953125 C1.26738281 3.60621094 1.35117188 4.69289063 1.4375 5.8125 C1.51871094 6.89144531 1.59992188 7.97039062 1.68359375 9.08203125 C1.90212461 12.05989905 1.90212461 12.05989905 3 15 C2.01 15 1.02 15 0 15 C0 10.05 0 5.1 0 0 Z " fill="#474642" transform="translate(205,84)"/>
<path d="M0 0 C2.475 0.495 2.475 0.495 5 1 C5.33 1.99 5.66 2.98 6 4 C4.35 4.33 2.7 4.66 1 5 C0.67 3.35 0.34 1.7 0 0 Z " fill="#95C749" transform="translate(376,86)"/>
<path d="M0 0 C0 0.66 0 1.32 0 2 C0.99 2.33 1.98 2.66 3 3 C-0.38018531 4.04005702 -3.4780279 4.08004482 -7 4 C-3.17391304 0 -3.17391304 0 0 0 Z " fill="#9ACE59" transform="translate(370,56)"/>
<path d="M0 0 C0.33 0.99 0.66 1.98 1 3 C-0.98 3.99 -0.98 3.99 -3 5 C-3 4.01 -3 3.02 -3 2 C-4.65 2 -6.3 2 -8 2 C-8 1.67 -8 1.34 -8 1 C-5.23735711 0.40267181 -2.83967231 0 0 0 Z " fill="#99C74C" transform="translate(372,99)"/>
<path d="M0 0 C2.97 0.495 2.97 0.495 6 1 C3.37801226 3.15377564 1.35595828 4.40072174 -2 5 C-2 4.01 -2 3.02 -2 2 C-1.34 2 -0.68 2 0 2 C0 1.34 0 0.68 0 0 Z " fill="#EBFADA" transform="translate(397,96)"/>
<path d="M0 0 C-2.05233685 2.2477975 -3.00667261 3.0022242 -6 4 C-6.66 2.68 -7.32 1.36 -8 0 C-5.13822943 -1.43088528 -3.06624227 -0.59991697 0 0 Z " fill="#97C74A" transform="translate(364,63)"/>
<path d="M0 0 C0 1.65 0 3.3 0 5 C-0.66 4.01 -1.32 3.02 -2 2 C-2.66 2.66 -3.32 3.32 -4 4 C-4.99 2.68 -5.98 1.36 -7 0 C-3.86650268 -1.04449911 -3.01031744 -0.93423645 0 0 Z " fill="#FBFEEA" transform="translate(428,49)"/>
<path d="M0 0 C0.33 0 0.66 0 1 0 C0.979375 0.928125 0.95875 1.85625 0.9375 2.8125 C0.84230396 6.02286011 0.84230396 6.02286011 2 9 C0.68 8.67 -0.64 8.34 -2 8 C-1.34 5.36 -0.68 2.72 0 0 Z " fill="#FDFEF3" transform="translate(299,79)"/>
<path d="M0 0 C2.31 0.33 4.62 0.66 7 1 C5.35 2.32 3.7 3.64 2 5 C1.34 4.67 0.68 4.34 0 4 C0.66 3.01 1.32 2.02 2 1 C1.34 0.67 0.68 0.34 0 0 Z " fill="#93CE52" transform="translate(400,98)"/>
<path d="M0 0 C2.475 0.99 2.475 0.99 5 2 C5 4.64 5 7.28 5 10 C4.67 10 4.34 10 4 10 C4 8.02 4 6.04 4 4 C3.34 4 2.68 4 2 4 C1.34 2.68 0.68 1.36 0 0 Z " fill="#E3E4DF" transform="translate(311,75)"/>
<path d="M0 0 C0 0.66 0 1.32 0 2 C-1.32 2 -2.64 2 -4 2 C-4 2.66 -4 3.32 -4 4 C-5.32 4 -6.64 4 -8 4 C-7.67 3.01 -7.34 2.02 -7 1 C-2.25 0 -2.25 0 0 0 Z " fill="#85CA2F" transform="translate(382,51)"/>
</svg>
