<?xml version="1.0" encoding="UTF-8"?>
<svg xmlns="http://www.w3.org/2000/svg" xmlns:xlink="http://www.w3.org/1999/xlink" width="810pt" height="809.999993pt" viewBox="0 0 810 809.999993" version="1.2">
<defs>
<clipPath id="clip1">
  <path d="M 104.605469 26.550781 L 705.320312 26.550781 L 705.320312 783.160156 L 104.605469 783.160156 Z M 104.605469 26.550781 "/>
</clipPath>
<clipPath id="clip2">
  <path d="M 104.605469 574 L 705.320312 574 L 705.320312 783.160156 L 104.605469 783.160156 Z M 104.605469 574 "/>
</clipPath>
<clipPath id="clip3">
  <path d="M 548 26.550781 L 705.320312 26.550781 L 705.320312 184 L 548 184 Z M 548 26.550781 "/>
</clipPath>
</defs>
<g id="surface1">
<g clip-path="url(#clip1)" clip-rule="nonzero">
<path style=" stroke:none;fill-rule:nonzero;fill:rgb(83.529663%,81.568909%,92.549133%);fill-opacity:1;" d="M 626.785156 783.160156 L 183.144531 783.160156 C 139.902344 783.160156 104.851562 748.121094 104.851562 704.890625 L 104.851562 104.820312 C 104.851562 61.589844 139.902344 26.550781 183.144531 26.550781 L 548.496094 26.550781 L 705.074219 183.089844 L 705.074219 704.890625 C 705.074219 748.121094 670.027344 783.160156 626.785156 783.160156 "/>
</g>
<g clip-path="url(#clip2)" clip-rule="nonzero">
<path style=" stroke:none;fill-rule:nonzero;fill:rgb(32.548523%,33.329773%,68.629456%);fill-opacity:1;" d="M 626.785156 783.160156 L 183.144531 783.160156 C 139.902344 783.160156 104.851562 748.121094 104.851562 704.890625 L 104.851562 574.441406 L 705.074219 574.441406 L 705.074219 704.890625 C 705.074219 748.121094 670.027344 783.160156 626.785156 783.160156 "/>
</g>
<g clip-path="url(#clip3)" clip-rule="nonzero">
<path style=" stroke:none;fill-rule:nonzero;fill:rgb(51.759338%,51.759338%,79.219055%);fill-opacity:1;" d="M 705.074219 183.089844 L 626.785156 183.089844 C 583.542969 183.089844 548.496094 148.050781 548.496094 104.820312 L 548.496094 26.550781 L 705.074219 183.089844 "/>
</g>
<path style=" stroke:none;fill-rule:nonzero;fill:rgb(100%,100%,100%);fill-opacity:1;" d="M 287.53125 639.667969 L 313.625 639.667969 C 320.832031 639.667969 326.675781 633.824219 326.675781 626.621094 C 326.675781 619.417969 320.832031 613.578125 313.625 613.578125 L 287.53125 613.578125 C 265.945312 613.578125 248.382812 631.132812 248.382812 652.710938 C 248.382812 674.292969 265.945312 691.847656 287.53125 691.847656 C 294.722656 691.847656 300.578125 697.699219 300.578125 704.890625 C 300.578125 712.082031 294.722656 717.9375 287.53125 717.9375 L 261.433594 717.9375 C 254.226562 717.9375 248.382812 723.777344 248.382812 730.980469 C 248.382812 738.183594 254.226562 744.027344 261.433594 744.027344 L 287.53125 744.027344 C 309.113281 744.027344 326.675781 726.472656 326.675781 704.890625 C 326.675781 683.3125 309.113281 665.757812 287.53125 665.757812 C 280.335938 665.757812 274.480469 659.902344 274.480469 652.710938 C 274.480469 645.519531 280.335938 639.667969 287.53125 639.667969 "/>
<path style=" stroke:none;fill-rule:nonzero;fill:rgb(100%,100%,100%);fill-opacity:1;" d="M 548.496094 717.9375 L 509.351562 717.9375 L 509.351562 626.621094 C 509.351562 619.417969 503.507812 613.578125 496.300781 613.578125 C 489.097656 613.578125 483.253906 619.417969 483.253906 626.621094 L 483.253906 730.980469 C 483.253906 738.183594 489.097656 744.027344 496.300781 744.027344 L 548.496094 744.027344 C 555.703125 744.027344 561.542969 738.183594 561.542969 730.980469 C 561.542969 723.777344 555.703125 717.9375 548.496094 717.9375 "/>
<path style=" stroke:none;fill-rule:nonzero;fill:rgb(100%,100%,100%);fill-opacity:1;" d="M 404.964844 717.9375 C 390.820312 717.9375 378.867188 700.011719 378.867188 678.800781 C 378.867188 657.589844 390.820312 639.667969 404.964844 639.667969 C 419.109375 639.667969 431.0625 657.589844 431.0625 678.800781 C 431.0625 685.140625 429.992188 691.175781 428.109375 696.539062 L 414.191406 682.625 C 409.09375 677.527344 400.835938 677.527344 395.738281 682.625 C 390.640625 687.71875 390.640625 695.972656 395.738281 701.070312 L 411.359375 716.695312 C 409.308594 717.503906 407.164062 717.9375 404.964844 717.9375 Z M 447.722656 716.140625 C 453.660156 705.554688 457.15625 692.679688 457.15625 678.800781 C 457.15625 642.839844 433.742188 613.578125 404.964844 613.578125 C 376.183594 613.578125 352.769531 642.839844 352.769531 678.800781 C 352.769531 714.765625 376.183594 744.027344 404.964844 744.027344 C 414.195312 744.027344 422.867188 741 430.40625 735.726562 L 434.882812 740.203125 C 437.433594 742.753906 440.769531 744.027344 444.109375 744.027344 C 447.449219 744.027344 450.785156 742.753906 453.335938 740.203125 C 458.433594 735.109375 458.433594 726.855469 453.335938 721.757812 L 447.722656 716.140625 "/>
<path style=" stroke:none;fill-rule:nonzero;fill:rgb(51.759338%,51.759338%,79.219055%);fill-opacity:1;" d="M 287.53125 209.183594 L 287.53125 443.992188 C 287.53125 458.398438 340.105469 470.082031 404.964844 470.082031 C 469.824219 470.082031 522.398438 458.398438 522.398438 443.992188 L 522.398438 209.183594 L 287.53125 209.183594 "/>
<path style=" stroke:none;fill-rule:nonzero;fill:rgb(100%,100%,100%);fill-opacity:1;" d="M 522.398438 209.183594 C 522.398438 223.589844 469.824219 235.273438 404.964844 235.273438 C 340.105469 235.273438 287.53125 223.589844 287.53125 209.183594 C 287.53125 194.773438 340.105469 183.089844 404.964844 183.089844 C 469.824219 183.089844 522.398438 194.773438 522.398438 209.183594 "/>
<path style=" stroke:none;fill-rule:nonzero;fill:rgb(32.548523%,33.329773%,68.629456%);fill-opacity:1;" d="M 404.964844 378.765625 C 337.46875 378.765625 296.507812 368.644531 287.53125 362.644531 L 287.53125 390.421875 C 307.613281 398.316406 342.804688 404.855469 404.964844 404.855469 C 467.117188 404.855469 502.316406 398.316406 522.398438 390.421875 L 522.398438 362.644531 C 513.421875 368.644531 472.460938 378.765625 404.964844 378.765625 "/>
<path style=" stroke:none;fill-rule:nonzero;fill:rgb(32.548523%,33.329773%,68.629456%);fill-opacity:1;" d="M 404.964844 300.496094 C 337.46875 300.496094 296.507812 290.375 287.53125 284.375 L 287.53125 312.152344 C 307.613281 320.046875 342.804688 326.585938 404.964844 326.585938 C 467.117188 326.585938 502.316406 320.046875 522.398438 312.152344 L 522.398438 284.375 C 513.421875 290.375 472.460938 300.496094 404.964844 300.496094 "/>
</g>
</svg>
